PathFileType	4	(X/Y/Z)	KinectAzureSkeleton.trc
DateRate	CameraRate	NumFrames	NumMarkers	Units	OrigDateRate	OrigDataStartFrame	OrigNumFrames
30	30	7	32	mm	30	23	183
Frame#	Time			PELVIS			SPINE_NAVAL			SPINE_CHEST			NECK			CLAVICLE_LEFT			SHOULDER_LEFT			ELBOW_LEFT			WRIST_LEFT			HAND_LEFT			HANDTIP_LEFT			THUMB_LEFT			CLAVICLE_RIGHT			SHOULDER_RIGHT			ELBOW_RIGHT			WRIST_RIGHT			HAND_RIGHT			HANDTIP_RIGHT			THUMB_RIGHT			HIP_LEFT			KNEE_LEFT			ANKLE_LEFT			FOOT_LEFT			HIP_RIGHT			KNEE_RIGHT			ANKLE_RIGHT			FOOT_RIGHT			HEAD			NOSE			EYE_LEFT			EAR_LEFT			EYE_RIGHT			EAR_RIGHT
		X1	Y1	Z1	X2	Y2	Z2	X3	Y3	Z3	X4	Y4	Z4	X5	Y5	Z5	X6	Y6	Z6	X7	Y7	Z7	X8	Y8	Z8	X9	Y9	Z9	X10	Y10	Z10	X11	Y11	Z11	X12	Y12	Z12	X13	Y13	Z13	X14	Y14	Z14	X15	Y15	Z15	X16	Y16	Z16	X17	Y17	Z17	X18	Y18	Z18	X19	Y19	Z19	X20	Y20	Z20	X21	Y21	Z21	X22	Y22	Z22	X23	Y23	Z23	X24	Y24	Z24	X25	Y25	Z25	X26	Y26	Z26	X27	Y27	Z27	X28	Y28	Z28	X29	Y29	Z29	X30	Y30	Z30	X31	Y31	Z31	X32	Y32	Z32

22	0.784400	-4850.041016	111.489212	270.752075	-4868.404785	288.594238	275.182373	-4894.162598	428.633942	275.659271	-4918.102051	643.931091	268.427307	-4927.300293	607.910461	248.472046	-4866.687500	512.728027	161.099915	-4816.229004	327.401459	359.139435	-4788.001465	126.988899	471.629333	-4798.068848	123.631287	376.084137	-4753.091309	25.818222	382.894592	-4742.811035	86.113480	340.153595	-4922.991211	608.534851	299.297852	-4833.882324	515.982605	326.339081	-4835.459473	299.128052	147.480728	-4769.871582	76.863243	183.238983	-4762.809570	140.002640	264.954926	-4766.466309	39.418846	298.313965	-4740.335449	98.637611	326.120270	-4859.394043	112.784218	180.212738	-4954.066895	-275.037354	199.386444	-5111.564941	-621.258118	234.308563	-5091.272461	-806.141724	253.949249	-4841.604980	110.318314	352.395203	-4944.942383	-275.302032	349.119965	-5079.938477	-636.255981	327.482269	-5064.373535	-806.756714	310.236969	-4895.665527	722.221069	264.198181	-4756.110352	800.694946	254.136032	-4791.132813	819.204590	214.725052	-4899.160156	780.664978	161.220947	-4788.044434	828.759338	283.470917	-4898.469238	805.287903	349.538971
23	0.817733	-4850.416992	115.512520	277.651245	-4859.708496	287.119171	276.941223	-4866.758301	424.290619	280.275421	-4897.733398	630.756836	292.574219	-4881.781250	598.671082	311.902771	-4892.803223	595.321411	449.126953	-4868.554688	332.499603	483.769897	-4791.007324	124.499870	509.097931	-4794.573242	60.078888	442.453247	-4748.779297	-8.880034	379.350159	-4748.522949	71.725380	386.783478	-4882.301270	600.007385	262.701813	-4908.166504	569.787415	142.423950	-4878.027832	302.211273	109.792641	-4802.577148	92.137680	72.818115	-4794.213379	46.851154	161.443115	-4774.929199	-7.071540	246.228210	-4752.557129	89.524940	206.055817	-4845.813965	116.124695	365.364380	-4927.821289	-260.553467	375.867035	-5021.118164	-616.926331	387.208038	-5186.475586	-687.541504	402.635040	-4854.568848	114.957314	198.556534	-4954.915039	-256.936279	203.819611	-5056.008789	-614.750549	225.181427	-5199.710938	-694.631409	248.361496	-4938.090332	698.214844	296.145752	-5091.785645	687.421814	281.244965	-5079.666992	718.790588	323.391083	-4981.594727	741.908752	392.389435	-5076.878418	728.397339	257.104248	-4966.969727	771.070190	212.059082
24	0.851066	-4850.388184	115.472290	277.661224	-4859.687988	287.073395	276.953827	-4866.753418	424.239929	280.290405	-4897.775879	630.691833	292.605682	-4881.817383	598.608948	311.931488	-4892.772461	594.976624	449.149689	-4868.343262	332.103363	483.210510	-4792.457520	123.413246	507.822693	-4796.512207	59.253082	440.958527	-4751.194336	-9.816117	377.637512	-4750.361328	70.730682	385.339081	-4882.335449	599.949402	262.732086	-4908.178711	569.733765	142.452423	-4877.946777	302.178162	109.805328	-4802.398438	92.150551	72.809044	-4794.050293	46.801754	161.400223	-4774.716309	-7.133372	246.162415	-4752.426758	89.456001	206.058502	-4845.785156	116.083313	365.371796	-4927.778809	-260.587708	375.819122	-5021.094238	-616.946228	387.100677	-5186.382324	-687.757507	402.311707	-4854.539063	114.918106	198.568817	-4954.785645	-256.989014	203.928665	-5055.536133	-614.884338	225.364151	-5199.058105	-695.018372	248.752106	-4938.146973	698.138184	296.181305	-5091.833984	687.310059	281.273193	-5079.725586	718.677246	323.421234	-4981.665039	741.812256	392.423859	-5076.935547	728.289917	257.137360	-4967.039063	770.991577	212.102036
25	0.884400	-4846.079102	112.283119	275.873138	-4857.057617	284.853271	275.767761	-4864.272949	422.853699	279.527771	-4898.044922	630.001831	294.664276	-4881.088379	597.767639	313.412292	-4890.783203	590.807556	451.453217	-4869.708008	325.403320	480.718536	-4787.149414	116.447525	488.331299	-4797.088379	51.262455	422.279449	-4745.230957	-18.186279	363.490601	-4748.874023	56.622765	366.886902	-4882.801270	599.572510	263.949524	-4912.048828	568.636902	143.803421	-4871.692383	301.809326	103.127609	-4791.786133	91.055153	71.163071	-4799.849609	42.685440	158.878174	-4777.498535	-0.849493	249.446808	-4762.813965	81.622314	211.103577	-4839.345703	112.765244	363.992493	-4931.108887	-264.068390	375.714996	-5020.516113	-623.780823	387.030823	-5184.249512	-700.890808	401.726013	-4852.150879	111.845154	196.412094	-4961.883301	-259.789001	205.600998	-5043.311523	-624.925598	227.228180	-5179.999023	-716.866089	255.033173	-4939.501465	697.253723	299.875763	-5094.668457	687.903442	290.244446	-5080.704590	719.069153	332.396851	-4979.445313	740.965515	398.465393	-5080.144531	729.154724	265.706818	-4970.815918	771.383789	216.809265
26	0.917733	-4842.700684	107.340210	286.705750	-4863.038086	282.483704	281.578308	-4868.567871	423.393738	281.263062	-4897.410156	635.780212	293.015289	-4881.338379	602.731018	312.906067	-4889.610352	591.170898	453.530487	-4873.146973	319.944305	482.133331	-4783.688477	108.863770	487.674713	-4799.949219	48.301697	416.034882	-4742.325684	-20.426392	357.984894	-4748.321289	50.303867	361.514496	-4882.221680	603.852478	262.405396	-4913.542969	573.936707	139.803055	-4868.803223	302.000763	100.386497	-4782.369629	88.436829	71.263725	-4795.786133	39.957626	160.585770	-4772.736328	0.085503	254.961578	-4759.437500	79.122475	215.249771	-4840.058594	110.283737	376.772980	-4956.258301	-267.195557	350.653168	-5032.429199	-637.404297	335.095856	-5183.296875	-723.758118	271.133881	-4845.082520	104.682594	205.488327	-4938.918457	-277.389862	244.901535	-4888.746094	-656.154053	256.958466	-4983.097168	-786.067688	314.082794	-4937.868652	705.589233	296.620117	-5096.680176	701.916016	299.353882	-5077.963379	734.371643	340.083588	-4968.961914	754.639771	398.554352	-5082.348145	742.642456	271.916901	-4973.579102	779.889221	212.220230
27	0.951066	-4843.295898	106.472343	286.769104	-4863.721191	281.996307	281.748688	-4869.952637	423.185181	281.598206	-4898.730469	636.036743	293.654724	-4882.615234	602.884338	313.530396	-4889.770020	591.139832	454.510498	-4870.186035	319.417542	482.124176	-4782.513672	107.009697	485.951233	-4799.939453	46.931103	413.903320	-4741.303711	-21.535412	356.129333	-4748.332031	48.421600	359.122681	-4883.564941	604.066101	262.922089	-4914.520996	574.159180	139.924469	-4868.594238	301.785522	100.602089	-4778.541016	89.083282	72.104279	-4790.408203	39.189972	161.123245	-4768.273438	-3.379636	254.792328	-4754.507813	78.581505	216.152756	-4841.150879	109.304260	377.049866	-4960.138184	-268.265167	351.698486	-5043.532715	-637.720154	335.208679	-5202.782715	-710.880676	274.003387	-4845.230957	103.915367	205.359070	-4950.802734	-276.699982	237.098190	-4830.315918	-640.347778	234.571945	-4903.332520	-789.009094	276.261597	-4939.234863	706.015320	297.399384	-5098.314453	706.770264	304.136536	-5077.652344	739.244812	344.067322	-4966.458496	757.217957	399.676514	-5083.537109	746.845337	275.783997	-4975.090332	780.435608	212.807022
28	0.984400	-4840.895508	106.814659	289.222626	-4861.743652	282.280609	284.382050	-4866.709473	423.509186	284.382233	-4893.979980	636.648926	294.386749	-4878.054688	603.585938	314.555267	-4873.854980	583.005920	454.627930	-4868.102051	310.575165	481.390808	-4902.187988	83.391350	475.395325	-4846.226563	43.525261	409.201080	-4770.162109	-6.124772	352.535706	-4789.079102	87.011124	386.645142	-4879.104004	604.273193	263.943512	-4910.996582	574.626831	141.132507	-4870.494141	301.555450	100.847145	-4789.484863	84.944260	74.907021	-4793.055664	37.151379	165.769882	-4766.673828	-5.690392	258.198059	-4754.441895	79.089737	216.936264	-4839.003418	109.530106	379.505859	-4959.931641	-267.211029	351.608337	-5055.982910	-633.287781	330.068634	-5217.149902	-701.880188	268.633209	-4842.602051	104.362701	207.810364	-4943.499023	-277.604095	238.114929	-4882.700684	-655.644043	249.536896	-4995.370605	-774.113647	298.890381	-4933.986328	706.936401	297.520874	-5092.200684	700.466431	314.096375	-5070.608398	733.927490	352.692535	-4957.128418	757.054749	401.318512	-5081.047852	741.110657	284.915527	-4978.357910	779.467590	215.373886
